<svg width="353" height="75" viewBox="0 0 353 75" fill="none" xmlns="http://www.w3.org/2000/svg">
<path d="M87.1253 4.64094C74.7251 12.1977 62.3249 19.7544 54.648 24.4707C44.3652 30.7878 39.945 33.3818 36.8557 34.8547C35.5573 35.4737 34.8107 35.843 34.8515 36.0694C34.8922 36.2958 35.7441 36.3709 42.2333 35.1411C48.7225 33.9113 60.823 31.3742 71.482 29.3762C82.1409 27.3782 90.9915 25.9963 100.11 24.5724" stroke="#F3F3F3" stroke-linecap="round"/>
<path d="M109.112 14.5857C105.959 17.4882 102.806 20.3908 101.384 22.0485C99.9628 23.7062 100.369 24.0312 101.094 24.0995C104.406 24.4117 106.184 22.8004 109.142 21.5345C115.303 18.898 117.089 16.9015 120.683 15.1046C121.825 14.5334 123.188 13.9434 123.718 13.9069C125.686 13.7714 119.967 17.7248 117.777 19.2863C117.182 19.7102 116.4 20.0389 109.725 24.1554C103.05 28.2719 90.4791 36.1269 83.4559 40.6311C73.2305 47.1889 71.0969 49.1947 66.7252 52.6513C63.1527 55.4759 56.7615 60.3857 53.237 63.1941C48.1088 67.6135 46.1879 69.4857 43.0084 72.4144C42.3536 73.0948 42.1719 73.5125 41.5491 73.9045" stroke="#F3F3F3" stroke-linecap="round"/>
<path d="M123.042 19.1861C127.394 16.2224 130.795 14.19 134.767 12.2801C137.315 11.0548 139.193 10.4016 139.775 10.4508C140.349 10.4992 139.362 11.8693 139.296 12.5921C139.267 12.9173 139.831 13.0791 140.269 13.1199C142.245 13.304 147.273 11.4162 151.115 11.3765C151.992 11.3675 152.004 12.9843 153.102 13.7375C156.593 16.1324 159.107 13.7639 161.628 13.4021C163.872 13.0801 166.838 12.4066 170.031 11.9553C172.175 11.6521 174.239 11.5979 178.269 11.4414C184.628 11.1944 193.018 12.2302 199.533 12.0784C202.634 12.0062 205.319 11.2759 206.755 10.8906C206.851 10.8649 206.12 10.7602 178.193 14.0733C150.266 17.3864 95.0052 24.0648 61.1626 27.6088C27.32 31.1528 16.5704 31.3599 10.0973 31.3841C3.62429 31.4083 1.7536 31.2433 1.22161 31.1964C0.689622 31.1495 1.55302 31.2256 54.378 27.6536C107.203 24.0817 211.963 16.8592 271.274 13.3932C330.585 9.92723 341.271 10.4365 352.281 10.9613" stroke="#F3F3F3" stroke-linecap="round"/>
</svg>
